<svg width="128" height="128" viewBox="0 0 128 128" fill="none" xmlns="http://www.w3.org/2000/svg">
<g clip-path="url(#clip0_16_28)">
<rect width="128" height="128" fill="#FFFEED"/>
<path d="M33.5939 53.8327L9.4009 64.3386L33.5939 74.9924L31.1524 80.4673L4 67.8159V60.8613L31.1524 48.2099L33.5939 53.8327Z" fill="#3E2300"/>
<path d="M51.3502 84.6845C51.3502 87.5699 49.1306 89.8634 46.1712 89.8634C43.2118 89.8634 41.0663 87.5699 41.0663 84.6845C41.0663 81.799 43.2858 79.5795 46.1712 79.5795C49.0567 79.5795 51.3502 81.873 51.3502 84.6845ZM49.1306 71.9591H43.1379L42.324 38H49.8705L49.1306 71.9591Z" fill="#8A5F04"/>
<path d="M69.1806 57.532C69.1806 60.3434 66.961 62.637 64.0756 62.637C61.1902 62.637 58.8967 60.3434 58.8967 57.532C58.8967 54.7206 61.1162 52.3531 64.0756 52.3531C67.035 52.3531 69.1806 54.6466 69.1806 57.532ZM67.9229 103.921H60.3764L61.1162 70.7013H67.109L67.9229 103.921Z" fill="#3E2300"/>
<path d="M87.011 84.6845C87.011 87.5699 84.7915 89.8634 81.8321 89.8634C78.8727 89.8634 76.7271 87.5699 76.7271 84.6845C76.7271 81.799 78.9467 79.5795 81.8321 79.5795C84.7175 79.5795 87.011 81.873 87.011 84.6845ZM84.7915 71.9591H78.7987L77.9849 38H85.5313L84.7915 71.9591Z" fill="#8A5F04"/>
<path d="M124.077 60.8613V67.8159L96.925 80.4673L94.4835 74.9924L118.677 64.3386L94.4835 53.8327L96.925 48.2099L124.077 60.8613Z" fill="#3E2300"/>
</g>
<defs>
<clipPath id="clip0_16_28">
<rect width="128" height="128" fill="white"/>
</clipPath>
</defs>
</svg>
