<svg width="259" height="32" viewBox="0 0 259 32" fill="none" xmlns="http://www.w3.org/2000/svg">
<path d="M204.52 23.83C204.52 23.11 204.444 22.534 204.292 22.102C204.14 21.67 203.94 21.346 203.692 21.13C203.444 20.914 203.172 20.77 202.876 20.698C202.584 20.626 202.296 20.59 202.012 20.59H201.04V27.166H202.024C202.32 27.166 202.614 27.12 202.906 27.028C203.202 26.932 203.472 26.764 203.716 26.524C203.96 26.28 204.154 25.942 204.298 25.51C204.446 25.074 204.52 24.514 204.52 23.83ZM205.63 23.83C205.63 24.518 205.556 25.106 205.408 25.594C205.264 26.078 205.066 26.478 204.814 26.794C204.562 27.11 204.274 27.356 203.95 27.532C203.63 27.704 203.292 27.826 202.936 27.898C202.584 27.966 202.238 28 201.898 28H200.002V19.738H201.766C202.25 19.738 202.72 19.792 203.176 19.9C203.636 20.008 204.05 20.208 204.418 20.5C204.79 20.788 205.084 21.2 205.3 21.736C205.52 22.272 205.63 22.97 205.63 23.83ZM220.007 21.55C220.603 21.55 221.101 21.686 221.501 21.958C221.905 22.226 222.207 22.606 222.407 23.098C222.611 23.59 222.713 24.17 222.713 24.838C222.713 25.482 222.609 26.052 222.401 26.548C222.193 27.044 221.887 27.434 221.483 27.718C221.083 27.998 220.587 28.138 219.995 28.138C219.403 28.138 218.905 28.002 218.501 27.73C218.097 27.458 217.791 27.076 217.583 26.584C217.379 26.088 217.277 25.51 217.277 24.85C217.277 24.198 217.381 23.624 217.589 23.128C217.797 22.632 218.103 22.246 218.507 21.97C218.915 21.69 219.415 21.55 220.007 21.55ZM220.007 22.372C219.463 22.372 219.051 22.574 218.771 22.978C218.495 23.378 218.357 24.002 218.357 24.85C218.357 25.682 218.493 26.3 218.765 26.704C219.041 27.108 219.451 27.31 219.995 27.31C220.539 27.31 220.947 27.108 221.219 26.704C221.495 26.3 221.633 25.678 221.633 24.838C221.633 23.998 221.497 23.378 221.225 22.978C220.953 22.574 220.547 22.372 220.007 22.372ZM237.853 27.268C238.169 27.268 238.463 27.216 238.735 27.112C239.011 27.008 239.265 26.876 239.497 26.716L239.989 27.376C239.713 27.612 239.381 27.798 238.993 27.934C238.605 28.07 238.225 28.138 237.853 28.138C237.225 28.138 236.689 28.004 236.245 27.736C235.805 27.464 235.469 27.084 235.237 26.596C235.005 26.104 234.889 25.528 234.889 24.868C234.889 24.236 235.005 23.67 235.237 23.17C235.473 22.666 235.811 22.27 236.251 21.982C236.695 21.694 237.233 21.55 237.865 21.55C238.269 21.55 238.647 21.612 238.999 21.736C239.355 21.856 239.681 22.038 239.977 22.282L239.485 22.954C239.217 22.766 238.947 22.626 238.675 22.534C238.407 22.438 238.133 22.39 237.853 22.39C237.309 22.39 236.861 22.594 236.509 23.002C236.157 23.41 235.981 24.032 235.981 24.868C235.981 25.428 236.061 25.886 236.221 26.242C236.385 26.594 236.607 26.854 236.887 27.022C237.171 27.186 237.493 27.268 237.853 27.268ZM254.54 27.304C255.024 27.304 255.406 27.214 255.686 27.034C255.97 26.85 256.112 26.606 256.112 26.302C256.112 26.11 256.076 25.944 256.004 25.804C255.936 25.664 255.794 25.538 255.578 25.426C255.362 25.314 255.03 25.202 254.582 25.09C254.146 24.982 253.766 24.858 253.442 24.718C253.122 24.574 252.872 24.388 252.692 24.16C252.516 23.932 252.428 23.636 252.428 23.272C252.428 22.916 252.528 22.61 252.728 22.354C252.932 22.094 253.214 21.896 253.574 21.76C253.934 21.62 254.352 21.55 254.828 21.55C255.336 21.55 255.778 21.618 256.154 21.754C256.534 21.886 256.856 22.05 257.12 22.246L256.676 22.93C256.436 22.766 256.172 22.632 255.884 22.528C255.596 22.42 255.248 22.366 254.84 22.366C254.344 22.366 253.992 22.444 253.784 22.6C253.576 22.752 253.472 22.95 253.472 23.194C253.472 23.378 253.522 23.532 253.622 23.656C253.726 23.776 253.9 23.886 254.144 23.986C254.388 24.082 254.724 24.188 255.152 24.304C255.564 24.412 255.922 24.542 256.226 24.694C256.534 24.846 256.774 25.046 256.946 25.294C257.118 25.542 257.204 25.862 257.204 26.254C257.204 26.702 257.076 27.066 256.82 27.346C256.564 27.622 256.232 27.824 255.824 27.952C255.42 28.076 254.992 28.138 254.54 28.138C253.968 28.138 253.48 28.056 253.076 27.892C252.676 27.724 252.34 27.522 252.068 27.286L252.644 26.62C252.892 26.824 253.176 26.99 253.496 27.118C253.82 27.242 254.168 27.304 254.54 27.304Z" fill="#D6CCB8"/>
<path d="M13.468 7.20538L2.45791 11.9865L13.468 16.835L12.3569 19.3266L0 13.569V10.404L12.3569 4.64645L13.468 7.20538Z" fill="#715110"/>
<path d="M21.5488 21.2458C21.5488 22.5589 20.5387 23.6027 19.1919 23.6027C17.8451 23.6027 16.8687 22.5589 16.8687 21.2458C16.8687 19.9327 17.8788 18.9226 19.1919 18.9226C20.505 18.9226 21.5488 19.9663 21.5488 21.2458ZM20.5387 15.4545H17.8114L17.441 0H20.8754L20.5387 15.4545Z" fill="#E1B61C"/>
<path d="M29.6633 8.88888C29.6633 10.1683 28.6532 11.2121 27.3401 11.2121C26.0269 11.2121 24.9832 10.1683 24.9832 8.88888C24.9832 7.60942 25.9933 6.53198 27.3401 6.53198C28.6869 6.53198 29.6633 7.57575 29.6633 8.88888ZM29.0909 30H25.6566L25.9933 14.8822H28.7205L29.0909 30Z" fill="#FFFB2F"/>
<path d="M37.7778 21.2458C37.7778 22.5589 36.7677 23.6027 35.4209 23.6027C34.0741 23.6027 33.0977 22.5589 33.0977 21.2458C33.0977 19.9327 34.1078 18.9226 35.4209 18.9226C36.734 18.9226 37.7778 19.9663 37.7778 21.2458ZM36.7677 15.4545H34.0404L33.67 0H37.1044L36.7677 15.4545Z" fill="#E1B61C"/>
<path d="M54.6465 10.404V13.569L42.2896 19.3266L41.1785 16.835L52.1886 11.9865L41.1785 7.20538L42.2896 4.64645L54.6465 10.404Z" fill="#715110"/>
<path d="M100.797 5.55557L98.9113 7.50843C97.2951 6.1953 95.9146 5.62291 93.8271 5.62291C90.4938 5.62291 87.1604 8.14816 87.1604 14.9832C87.1604 21.8182 89.4163 24.3771 93.4904 24.3771C95.0392 24.3771 96.5881 24.0741 97.9012 23.3333V16.33H93.7934L93.4231 13.7374H101.066V24.9495C98.8776 26.1953 96.4534 27.0034 93.4904 27.0034C87.4971 27.0034 83.7598 22.9966 83.7598 14.9832C83.7598 6.96971 88.4736 2.99664 93.8271 2.99664C96.8911 2.99664 98.8103 3.90573 100.797 5.55557Z" fill="#FFFB2F"/>
<path d="M142.278 5.95961H133.288V13.5354H141.1V16.0943H133.288V24.0404H142.918V26.5993H130.09V3.40068H142.649L142.278 5.95961Z" fill="#FFFB2F"/>
<path d="M188.507 26.5993H184.231L174.804 6.90237C174.972 8.82156 175.241 11.6498 175.241 15.9596V26.5993H172.245V3.40068H176.42L185.948 23.1313C185.881 22.5926 185.511 18.8889 185.511 16.0606V3.40068H188.507V26.5993Z" fill="#FFFB2F"/>
</svg>
